<?xml version="1.0" encoding="utf-8"?>
<!-- Generator: Adobe Illustrator 26.4.1, SVG Export Plug-In . SVG Version: 6.00 Build 0)  -->
<svg version="1.1" id="Calque_1" xmlns="http://www.w3.org/2000/svg" xmlns:xlink="http://www.w3.org/1999/xlink" x="0px" y="0px"
	 viewBox="0 0 512 512" style="enable-background:new 0 0 512 512;" xml:space="preserve">
<style type="text/css">
	.st0{fill:#09915A;}
	.st1{fill:#12563C;}
</style>
<polygon class="st0" points="94.8,437.6 92.4,424.1 86.2,415.4 82.2,410.1 91.2,410 99.9,412.7 104.1,414.5 99.3,405.5 93.1,399.5 
	89.4,397.4 96,395.6 108,399.5 114.3,403.4 114.3,394.7 107.1,386.6 103.5,382.1 114.3,382.1 123,387.8 127.5,395 129,397.7 
	138.6,392.6 147.6,390.5 144,397.7 138.6,406.1 136.2,413.9 145.5,410.1 153.7,410.1 159.6,410.1 152.4,417.2 147.3,425 
	145.2,432.5 144.9,437.6 "/>
<path class="st1" d="M77.5,438.7c0,1.3,1.1,2.4,2.4,2.4H160c1.3,0,2.4-1.1,2.4-2.4s-1.1-2.4-2.4-2.4h-12.9
	c0.3-9.5,5.8-18.8,14.1-23.5c0.8-0.5,1.3-1.4,1.2-2.4c-0.1-1-0.8-1.8-1.8-2c-7.1-1.8-14.8-0.8-21.2,2.6c1.6-5.9,5.3-12.7,13.3-19.1
	c0.9-0.7,1.2-2,0.6-3c-0.4-0.8-1.3-1.3-2.2-1.3c-2.8,0-12.2,0.6-20.7,7.2c-0.2,0.2-0.4,0.3-0.6,0.4c-1.6-4-4.2-7.6-7.5-10.3
	c-5.9-4.9-13.9-6.9-21.5-5.5c-0.8,0.2-1.6,0.7-1.9,1.5c-0.4,1.1,0,2.2,0.9,2.8c7.5,5,10.5,11,11.6,15.9c-6.4-4.7-15.3-7.7-25-4.4
	c-0.9,0.3-1.6,1.1-1.7,2c-0.2,1.2,0.6,2.3,1.7,2.6c5.8,1.6,9.9,5.7,12.8,10.6c-6.2-3-13.4-3.8-20.1-2.1c-1,0.2-1.7,1-1.8,2
	c-0.1,1,0.3,1.9,1.2,2.4c8.3,4.8,13.7,14,14.1,23.5H79.9C78.6,436.3,77.5,437.3,77.5,438.7L77.5,438.7z M97.6,436.3
	c-0.3-9.1-4.5-18-11.4-24h0.2c5,0,10,1.5,14.1,4.3c1,0.7,2,1.5,2.8,2.3c0.3,0.8,0.5,1.6,0.8,2.4c0.3,1.2,1.5,1.9,2.7,1.7
	c0,0,0,0,0.1,0c1.4-0.2,2.3-1.6,1.9-3c-2.3-7.5-6.3-16.2-13.6-21.3c3.3,0,6.6,0.9,9.9,2.6c3,1.6,5.5,3.6,7.1,5.3
	c-0.1,1-0.2,1.9-0.3,2.8c-0.2,1.1,0.4,2.2,1.5,2.6c0,0,0,0,0,0c1.4,0.6,3-0.3,3.2-1.8c0.5-2.6,0.6-5.5,0.2-8.7
	c-0.6-4.9-2.7-11.6-9-17.6c4.2,0.4,8.4,2.1,11.6,4.7c3.2,2.6,5.5,6.3,6.8,10.3c-1.1,1.2-2,2.5-2.9,3.9c-0.8,1.3-0.2,3,1.2,3.5
	c0,0,0,0,0,0c1,0.4,2.2,0,2.8-0.9c1.6-2.6,3.7-4.8,6.2-6.7c3.4-2.6,7.2-4.2,10.7-5.2c-7,7.6-9.6,15.3-10.3,21.5
	c-2.4,2.2-4.5,4.8-6.1,7.6c-0.6,1.2-0.2,2.6,0.9,3.3c1.2,0.6,2.6,0.2,3.3-0.9c1.9-3.3,4.5-6.2,7.6-8.3c4.2-2.9,9.3-4.3,14.3-4.3
	c-6.8,6-11.1,14.9-11.4,24L97.6,436.3L97.6,436.3z"/>
<polygon class="st0" points="41.5,322.6 39.1,309.1 33,300.4 28.9,295 37.9,295 46.6,297.7 50.8,299.5 46,290.5 39.9,284.5 
	36.1,282.4 42.7,280.6 54.7,284.5 61,288.4 61,279.7 53.8,271.6 50.2,267.1 61,267.1 69.7,272.8 74.2,280 75.7,282.7 85.3,277.6 
	94.3,275.5 90.7,282.7 85.3,291.1 82.9,298.9 92.2,295 100.5,295 106.3,295 99.1,302.2 94,310 91.9,317.5 91.6,322.6 "/>
<path class="st1" d="M24.3,323.7c0,1.3,1.1,2.4,2.4,2.4h80.1c1.3,0,2.4-1.1,2.4-2.4s-1.1-2.4-2.4-2.4H93.9
	c0.3-9.5,5.8-18.8,14.1-23.5c0.8-0.5,1.3-1.4,1.2-2.4c-0.1-1-0.8-1.8-1.8-2c-7.1-1.8-14.8-0.8-21.2,2.6c1.6-5.9,5.3-12.7,13.3-19.1
	c0.9-0.7,1.2-2,0.6-3c-0.4-0.8-1.3-1.3-2.2-1.3c-2.8,0-12.2,0.6-20.7,7.2c-0.2,0.2-0.4,0.3-0.6,0.4c-1.6-4-4.2-7.6-7.5-10.3
	c-5.9-4.9-13.9-6.9-21.5-5.5c-0.8,0.2-1.6,0.7-1.9,1.5c-0.4,1.1,0,2.2,0.9,2.8c7.5,5,10.5,11,11.6,15.9c-6.4-4.7-15.3-7.7-25-4.4
	c-0.9,0.3-1.6,1.1-1.7,2c-0.2,1.2,0.6,2.3,1.7,2.6c5.8,1.6,9.9,5.7,12.8,10.6c-6.2-3-13.4-3.8-20.1-2.1c-1,0.2-1.7,1-1.8,2
	c-0.1,1,0.3,1.9,1.2,2.4c8.3,4.8,13.7,14,14.1,23.5H26.7C25.3,321.2,24.3,322.3,24.3,323.7L24.3,323.7z M44.3,321.2
	c-0.3-9.1-4.5-18-11.4-24h0.2c5,0,10,1.5,14.1,4.3c1,0.7,2,1.5,2.8,2.3c0.3,0.8,0.5,1.6,0.8,2.4c0.3,1.2,1.5,1.9,2.7,1.7
	c0,0,0,0,0.1,0c1.4-0.2,2.3-1.6,1.9-3c-2.3-7.5-6.3-16.2-13.6-21.3c3.3,0,6.6,0.9,9.9,2.6c3,1.6,5.5,3.6,7.1,5.3
	c-0.1,1-0.2,1.9-0.3,2.8c-0.2,1.1,0.4,2.2,1.5,2.6c0,0,0,0,0,0c1.4,0.6,3-0.3,3.2-1.8c0.5-2.6,0.6-5.5,0.2-8.7
	c-0.6-4.9-2.7-11.6-9-17.6c4.2,0.4,8.4,2.1,11.6,4.7c3.2,2.6,5.5,6.3,6.8,10.3c-1.1,1.2-2,2.5-2.9,3.9c-0.8,1.3-0.2,3,1.2,3.5
	c0,0,0,0,0,0c1,0.4,2.2,0,2.8-0.9c1.6-2.6,3.7-4.8,6.2-6.7c3.4-2.6,7.2-4.2,10.7-5.2c-7,7.6-9.6,15.3-10.3,21.5
	c-2.4,2.2-4.5,4.8-6.1,7.6c-0.6,1.2-0.2,2.6,0.9,3.3c1.2,0.6,2.6,0.2,3.3-0.9c1.9-3.3,4.5-6.2,7.6-8.3c4.2-2.9,9.3-4.3,14.3-4.3
	c-6.8,6-11.1,14.9-11.4,24L44.3,321.2L44.3,321.2z"/>
<polygon class="st0" points="213.1,360.1 210.7,346.6 204.5,337.9 200.5,332.6 209.5,332.5 218.2,335.2 222.4,337 217.6,328 
	211.5,322 207.7,319.9 214.3,318.1 226.3,322 232.6,325.9 232.6,317.2 225.4,309.1 221.8,304.6 232.6,304.6 241.3,310.3 
	245.8,317.5 247.3,320.2 256.9,315.1 265.9,313 262.3,320.2 256.9,328.6 254.5,336.4 263.8,332.6 272.1,332.6 277.9,332.6 
	270.7,339.7 265.6,347.5 263.5,355 263.2,360.1 "/>
<path class="st1" d="M195.8,361.2c0,1.3,1.1,2.4,2.4,2.4h80.1c1.3,0,2.4-1.1,2.4-2.4c0-1.3-1.1-2.4-2.4-2.4h-12.9
	c0.3-9.5,5.8-18.8,14.1-23.5c0.8-0.5,1.3-1.4,1.2-2.4c-0.1-1-0.8-1.8-1.8-2c-7.1-1.8-14.8-0.8-21.2,2.6c1.6-5.9,5.3-12.7,13.3-19.1
	c0.9-0.7,1.2-2,0.6-3c-0.4-0.8-1.3-1.3-2.2-1.3c-2.8,0-12.2,0.6-20.7,7.2c-0.2,0.2-0.4,0.3-0.6,0.4c-1.6-4-4.2-7.6-7.5-10.3
	c-5.9-4.9-13.9-6.9-21.5-5.5c-0.8,0.2-1.6,0.7-1.9,1.5c-0.4,1.1,0,2.2,0.9,2.8c7.5,5,10.5,11,11.6,15.9c-6.4-4.7-15.3-7.7-25-4.4
	c-0.9,0.3-1.6,1.1-1.7,2c-0.2,1.2,0.6,2.3,1.7,2.6c5.8,1.6,9.9,5.7,12.8,10.6c-6.2-3-13.4-3.8-20.1-2.1c-1,0.2-1.7,1-1.8,2
	c-0.1,1,0.3,1.9,1.2,2.4c8.3,4.8,13.7,14,14.1,23.5h-12.9C196.9,358.8,195.8,359.9,195.8,361.2L195.8,361.2z M215.9,358.8
	c-0.3-9.1-4.5-18-11.4-24h0.2c5,0,10,1.5,14.1,4.3c1,0.7,2,1.5,2.8,2.3c0.3,0.8,0.5,1.6,0.8,2.4c0.3,1.2,1.5,1.9,2.7,1.7
	c0,0,0,0,0.1,0c1.4-0.2,2.3-1.6,1.9-3c-2.3-7.5-6.3-16.2-13.6-21.3c3.3,0,6.6,0.9,9.9,2.6c3,1.6,5.5,3.6,7.1,5.3
	c-0.1,1-0.2,1.9-0.3,2.8c-0.2,1.1,0.4,2.2,1.5,2.6c0,0,0,0,0,0c1.4,0.6,3-0.3,3.2-1.8c0.5-2.6,0.6-5.5,0.2-8.7
	c-0.6-4.9-2.7-11.6-9-17.6c4.2,0.4,8.4,2.1,11.6,4.7c3.2,2.6,5.5,6.3,6.8,10.3c-1.1,1.2-2,2.5-2.9,3.9c-0.8,1.3-0.2,3,1.2,3.5
	c0,0,0,0,0,0c1,0.4,2.2,0,2.8-0.9c1.6-2.6,3.7-4.8,6.2-6.7c3.4-2.6,7.2-4.2,10.7-5.2c-7,7.6-9.6,15.3-10.3,21.5
	c-2.4,2.2-4.5,4.8-6.1,7.6c-0.6,1.2-0.2,2.6,0.9,3.3c1.2,0.6,2.6,0.2,3.3-0.9c1.9-3.3,4.5-6.2,7.6-8.3c4.2-2.9,9.3-4.3,14.3-4.3
	c-6.8,6-11.1,14.9-11.4,24L215.9,358.8L215.9,358.8z"/>
<polygon class="st0" points="344.1,452.1 341.7,438.6 335.5,429.9 331.5,424.6 340.5,424.5 349.2,427.2 353.4,429 348.6,420 
	342.5,414 338.7,411.9 345.3,410.1 357.3,414 363.6,417.9 363.6,409.2 356.4,401.1 352.8,396.6 363.6,396.6 372.3,402.3 
	376.8,409.5 378.3,412.2 387.9,407.1 396.9,405 393.3,412.2 387.9,420.6 385.5,428.4 394.8,424.6 403.1,424.6 408.9,424.6 
	401.7,431.7 396.6,439.5 394.5,447 394.2,452.1 "/>
<path class="st1" d="M326.8,453.2c0,1.3,1.1,2.4,2.4,2.4h80.1c1.3,0,2.4-1.1,2.4-2.4c0-1.3-1.1-2.4-2.4-2.4h-12.9
	c0.3-9.5,5.8-18.8,14.1-23.5c0.8-0.5,1.3-1.4,1.2-2.4c-0.1-1-0.8-1.8-1.8-2c-7.1-1.8-14.8-0.8-21.2,2.6c1.6-5.9,5.3-12.7,13.3-19.1
	c0.9-0.7,1.2-2,0.6-3c-0.4-0.8-1.3-1.3-2.2-1.3c-2.8,0-12.2,0.6-20.7,7.2c-0.2,0.2-0.4,0.3-0.6,0.4c-1.6-4-4.2-7.6-7.5-10.3
	c-5.9-4.9-13.9-6.9-21.5-5.5c-0.8,0.2-1.6,0.7-1.9,1.5c-0.4,1.1,0,2.2,0.9,2.8c7.5,5,10.5,11,11.6,15.9c-6.4-4.7-15.3-7.7-25-4.4
	c-0.9,0.3-1.6,1.1-1.7,2c-0.2,1.2,0.6,2.3,1.7,2.6c5.8,1.6,9.9,5.7,12.8,10.6c-6.2-3-13.4-3.8-20.1-2.1c-1,0.2-1.7,1-1.8,2
	c-0.1,1,0.3,1.9,1.2,2.4c8.3,4.8,13.7,14,14.1,23.5h-12.9C327.9,450.8,326.8,451.9,326.8,453.2L326.8,453.2z M346.9,450.8
	c-0.3-9.1-4.5-18-11.4-24h0.2c5,0,10,1.5,14.1,4.3c1,0.7,2,1.5,2.8,2.3c0.3,0.8,0.5,1.6,0.8,2.4c0.3,1.2,1.5,1.9,2.7,1.7
	c0,0,0,0,0.1,0c1.4-0.2,2.3-1.6,1.9-3c-2.3-7.5-6.3-16.2-13.6-21.3c3.3,0,6.6,0.9,9.9,2.6c3,1.6,5.5,3.6,7.1,5.3
	c-0.1,1-0.2,1.9-0.3,2.8c-0.2,1.1,0.4,2.2,1.5,2.6c0,0,0,0,0,0c1.4,0.6,3-0.3,3.2-1.8c0.5-2.6,0.6-5.5,0.2-8.7
	c-0.6-4.9-2.7-11.6-9-17.6c4.2,0.4,8.4,2.1,11.6,4.7c3.2,2.6,5.5,6.3,6.8,10.3c-1.1,1.2-2,2.5-2.9,3.9c-0.8,1.3-0.2,3,1.2,3.5
	c0,0,0,0,0,0c1,0.4,2.2,0,2.8-0.9c1.6-2.6,3.7-4.8,6.2-6.7c3.4-2.6,7.2-4.2,10.7-5.2c-7,7.6-9.6,15.3-10.3,21.5
	c-2.4,2.2-4.5,4.8-6.1,7.6c-0.6,1.2-0.2,2.6,0.9,3.3c1.2,0.6,2.6,0.2,3.3-0.9c1.9-3.3,4.5-6.2,7.6-8.3c4.2-2.9,9.3-4.3,14.3-4.3
	c-6.8,6-11.1,14.9-11.4,24L346.9,450.8L346.9,450.8z"/>
<polygon class="st0" points="400.8,340.2 398.4,326.7 392.3,318 388.2,312.7 397.2,312.6 405.9,315.3 410.1,317.1 405.3,308.1 
	399.2,302.1 395.4,300 402,298.2 414,302.1 420.3,306 420.3,297.3 413.1,289.2 409.5,284.7 420.3,284.7 429,290.4 433.5,297.6 
	435,300.3 444.6,295.2 453.6,293.1 450,300.3 444.6,308.7 442.2,316.5 451.5,312.7 459.8,312.7 465.6,312.7 458.4,319.8 
	453.3,327.6 451.2,335.1 450.9,340.2 "/>
<path class="st1" d="M383.5,341.3c0,1.3,1.1,2.4,2.4,2.4h80.1c1.3,0,2.4-1.1,2.4-2.4s-1.1-2.4-2.4-2.4h-12.9
	c0.3-9.5,5.8-18.8,14.1-23.5c0.8-0.5,1.3-1.4,1.2-2.4c-0.1-1-0.8-1.8-1.8-2c-7.1-1.8-14.8-0.8-21.2,2.6c1.6-5.9,5.3-12.7,13.3-19.1
	c0.9-0.7,1.2-2,0.6-3c-0.4-0.8-1.3-1.3-2.2-1.3c-2.8,0-12.2,0.6-20.7,7.2c-0.2,0.2-0.4,0.3-0.6,0.4c-1.6-4-4.2-7.6-7.5-10.3
	c-5.9-4.9-13.9-6.9-21.5-5.5c-0.8,0.2-1.6,0.7-1.9,1.5c-0.4,1.1,0,2.2,0.9,2.8c7.5,5,10.5,11,11.6,15.9c-6.4-4.7-15.3-7.7-25-4.4
	c-0.9,0.3-1.6,1.1-1.7,2c-0.2,1.2,0.6,2.3,1.7,2.6c5.8,1.6,9.9,5.7,12.8,10.6c-6.2-3-13.4-3.8-20.1-2.1c-1,0.2-1.7,1-1.8,2
	c-0.1,1,0.3,1.9,1.2,2.4c8.3,4.8,13.7,14,14.1,23.5H386C384.6,338.9,383.5,340,383.5,341.3L383.5,341.3z M403.6,338.9
	c-0.3-9.1-4.5-18-11.4-24h0.2c5,0,10,1.5,14.1,4.3c1,0.7,2,1.5,2.8,2.3c0.3,0.8,0.5,1.6,0.8,2.4c0.3,1.2,1.5,1.9,2.7,1.7
	c0,0,0,0,0.1,0c1.4-0.2,2.3-1.6,1.9-3c-2.3-7.5-6.3-16.2-13.6-21.3c3.3,0,6.6,0.9,9.9,2.6c3,1.6,5.5,3.6,7.1,5.3
	c-0.1,1-0.2,1.9-0.3,2.8c-0.2,1.1,0.4,2.2,1.5,2.6c0,0,0,0,0,0c1.4,0.6,3-0.3,3.2-1.8c0.5-2.6,0.6-5.5,0.2-8.7
	c-0.6-4.9-2.7-11.6-9-17.6c4.2,0.4,8.4,2.1,11.6,4.7c3.2,2.6,5.5,6.3,6.8,10.3c-1.1,1.2-2,2.5-2.9,3.9c-0.8,1.3-0.2,3,1.2,3.5
	c0,0,0,0,0,0c1,0.4,2.2,0,2.8-0.9c1.6-2.6,3.7-4.8,6.2-6.7c3.4-2.6,7.2-4.2,10.7-5.2c-7,7.6-9.6,15.3-10.3,21.5
	c-2.4,2.2-4.5,4.8-6.1,7.6c-0.6,1.2-0.2,2.6,0.9,3.3c1.2,0.6,2.6,0.2,3.3-0.9c1.9-3.3,4.5-6.2,7.6-8.3c4.2-2.9,9.3-4.3,14.3-4.3
	c-6.8,6-11.1,14.9-11.4,24L403.6,338.9L403.6,338.9z"/>
<polygon class="st0" points="324.6,237.4 322.2,223.9 316.1,215.2 312,209.8 321,209.8 329.7,212.5 333.9,214.3 329.1,205.3 
	323,199.3 319.2,197.2 325.8,195.4 337.8,199.3 344.1,203.2 344.1,194.5 336.9,186.4 333.3,181.9 344.1,181.9 352.8,187.6 
	357.3,194.8 358.8,197.5 368.4,192.4 377.4,190.3 373.8,197.5 368.4,205.9 366,213.7 375.3,209.8 383.6,209.8 389.4,209.8 
	382.2,217 377.1,224.8 375,232.3 374.7,237.4 "/>
<path class="st1" d="M307.3,238.5c0,1.3,1.1,2.4,2.4,2.4h80.1c1.3,0,2.4-1.1,2.4-2.4s-1.1-2.4-2.4-2.4H377
	c0.3-9.5,5.8-18.8,14.1-23.5c0.8-0.5,1.3-1.4,1.2-2.4c-0.1-1-0.8-1.8-1.8-2c-7-1.8-14.8-0.8-21.2,2.6c1.6-5.9,5.3-12.7,13.3-19.1
	c0.9-0.7,1.2-2,0.6-3c-0.4-0.8-1.3-1.3-2.2-1.3c-2.8,0-12.2,0.6-20.7,7.2c-0.2,0.2-0.4,0.3-0.6,0.4c-1.6-4-4.2-7.6-7.5-10.3
	c-5.9-4.9-13.9-6.9-21.5-5.5c-0.8,0.2-1.6,0.7-1.9,1.5c-0.4,1.1,0,2.2,0.9,2.8c7.5,5,10.5,11,11.6,15.9c-6.4-4.7-15.3-7.7-25-4.4
	c-0.9,0.3-1.6,1.1-1.7,2c-0.2,1.2,0.6,2.3,1.7,2.6c5.8,1.6,9.9,5.7,12.8,10.6c-6.2-3-13.4-3.8-20.1-2.1c-1,0.2-1.7,1-1.8,2
	c-0.1,1,0.3,1.9,1.2,2.4c8.3,4.8,13.7,14,14.1,23.5h-12.9C308.4,236.1,307.3,237.1,307.3,238.5L307.3,238.5z M327.4,236.1
	c-0.3-9.1-4.5-18-11.4-24h0.2c5,0,10,1.5,14.1,4.3c1,0.7,2,1.5,2.8,2.3c0.3,0.8,0.5,1.6,0.8,2.4c0.3,1.2,1.5,1.9,2.7,1.7
	c0,0,0,0,0.1,0c1.4-0.2,2.3-1.6,1.9-3c-2.3-7.5-6.3-16.2-13.6-21.3c3.3,0,6.6,0.9,9.9,2.6c3,1.6,5.5,3.6,7.1,5.3
	c-0.1,1-0.2,1.9-0.3,2.8c-0.2,1.1,0.4,2.2,1.5,2.6c0,0,0,0,0,0c1.4,0.6,3-0.3,3.2-1.8c0.5-2.6,0.6-5.5,0.2-8.7
	c-0.6-4.9-2.7-11.6-9-17.6c4.2,0.4,8.4,2.1,11.6,4.7c3.2,2.6,5.5,6.3,6.8,10.3c-1.1,1.2-2,2.5-2.9,3.9c-0.8,1.3-0.2,3,1.2,3.5
	c0,0,0,0,0,0c1,0.4,2.2,0,2.8-0.9c1.6-2.6,3.7-4.8,6.2-6.7c3.4-2.6,7.2-4.2,10.7-5.2c-7,7.6-9.6,15.3-10.3,21.5
	c-2.4,2.2-4.5,4.8-6.1,7.6c-0.6,1.2-0.2,2.6,0.9,3.3c1.2,0.6,2.6,0.2,3.3-0.9c1.9-3.3,4.5-6.2,7.6-8.3c4.2-2.9,9.3-4.3,14.3-4.3
	c-6.8,6-11.1,14.9-11.4,24L327.4,236.1L327.4,236.1z"/>
<polygon class="st0" points="143.5,253.7 141.1,240.2 134.9,231.5 130.9,226.1 139.9,226.1 148.6,228.8 152.8,230.6 148,221.6 
	141.8,215.6 138.1,213.5 144.7,211.7 156.7,215.6 163,219.5 163,210.8 155.8,202.7 152.2,198.2 163,198.2 171.7,203.9 176.2,211.1 
	177.7,213.8 187.3,208.7 196.3,206.6 192.7,213.8 187.3,222.2 184.9,230 194.2,226.1 202.4,226.1 208.3,226.1 201.1,233.3 
	196,241.1 193.9,248.6 193.6,253.7 "/>
<path class="st1" d="M126.2,254.7c0,1.3,1.1,2.4,2.4,2.4h80.1c1.3,0,2.4-1.1,2.4-2.4c0-1.3-1.1-2.4-2.4-2.4h-12.9
	c0.3-9.5,5.8-18.8,14.1-23.5c0.8-0.5,1.3-1.4,1.2-2.4c-0.1-1-0.8-1.8-1.8-2c-7.1-1.8-14.8-0.8-21.2,2.6c1.6-5.9,5.3-12.7,13.3-19.1
	c0.9-0.7,1.2-2,0.6-3c-0.4-0.8-1.3-1.3-2.2-1.3c-2.8,0-12.2,0.6-20.7,7.2c-0.2,0.2-0.4,0.3-0.6,0.4c-1.6-4-4.2-7.6-7.5-10.3
	c-5.9-4.9-13.9-6.9-21.5-5.5c-0.8,0.2-1.6,0.7-1.9,1.5c-0.4,1.1,0,2.2,0.9,2.8c7.5,5,10.5,11,11.6,15.9c-6.4-4.7-15.3-7.7-25-4.4
	c-0.9,0.3-1.6,1.1-1.7,2c-0.2,1.2,0.6,2.3,1.7,2.6c5.8,1.6,9.9,5.7,12.8,10.6c-6.2-3-13.4-3.8-20.1-2.1c-1,0.2-1.7,1-1.8,2
	c-0.1,1,0.3,1.9,1.2,2.4c8.3,4.8,13.7,14,14.1,23.5h-12.9C127.3,252.3,126.2,253.4,126.2,254.7L126.2,254.7z M146.3,252.3
	c-0.3-9.1-4.5-18-11.4-24h0.2c5,0,10,1.5,14.1,4.3c1,0.7,2,1.5,2.8,2.3c0.3,0.8,0.5,1.6,0.8,2.4c0.3,1.2,1.5,1.9,2.7,1.7
	c0,0,0,0,0.1,0c1.4-0.2,2.3-1.6,1.9-3c-2.3-7.5-6.3-16.2-13.6-21.3c3.3,0,6.6,0.9,9.9,2.6c3,1.6,5.5,3.6,7.1,5.3
	c-0.1,1-0.2,1.9-0.3,2.8c-0.2,1.1,0.4,2.2,1.5,2.6c0,0,0,0,0,0c1.4,0.6,3-0.3,3.2-1.8c0.5-2.6,0.6-5.5,0.2-8.7
	c-0.6-4.9-2.7-11.6-9-17.6c4.2,0.4,8.4,2.1,11.6,4.7c3.2,2.6,5.5,6.3,6.8,10.3c-1.1,1.2-2,2.5-2.9,3.9c-0.8,1.3-0.2,3,1.2,3.5
	c0,0,0,0,0,0c1,0.4,2.2,0,2.8-0.9c1.6-2.6,3.7-4.8,6.2-6.7c3.4-2.6,7.2-4.2,10.7-5.2c-7,7.6-9.6,15.3-10.3,21.5
	c-2.4,2.2-4.5,4.8-6.1,7.6c-0.6,1.2-0.2,2.6,0.9,3.3c1.2,0.6,2.6,0.2,3.3-0.9c1.9-3.3,4.5-6.2,7.6-8.3c4.2-2.9,9.3-4.3,14.3-4.3
	c-6.8,6-11.1,14.9-11.4,24L146.3,252.3L146.3,252.3z"/>
<polygon class="st0" points="52.3,175.3 49.9,161.8 43.7,153.1 39.7,147.7 48.7,147.7 57.4,150.4 61.6,152.2 56.8,143.2 50.7,137.2 
	46.9,135.1 53.5,133.3 65.5,137.2 71.8,141.1 71.8,132.4 64.6,124.3 61,119.8 71.8,119.8 80.5,125.5 85,132.7 86.5,135.4 
	96.1,130.3 105.1,128.2 101.5,135.4 96.1,143.8 93.7,151.6 103,147.7 111.3,147.7 117.1,147.7 109.9,154.9 104.8,162.7 102.7,170.2 
	102.4,175.3 "/>
<path class="st1" d="M35,176.4c0,1.3,1.1,2.4,2.4,2.4h80.1c1.3,0,2.4-1.1,2.4-2.4c0-1.3-1.1-2.4-2.4-2.4h-12.9
	c0.3-9.5,5.8-18.8,14.1-23.5c0.8-0.5,1.3-1.4,1.2-2.4c-0.1-1-0.8-1.8-1.8-2c-7.1-1.8-14.8-0.8-21.2,2.6c1.6-5.9,5.3-12.7,13.3-19.1
	c0.9-0.7,1.2-2,0.6-3c-0.4-0.8-1.3-1.3-2.2-1.3c-2.8,0-12.2,0.6-20.7,7.2c-0.2,0.2-0.4,0.3-0.6,0.4c-1.6-4-4.2-7.6-7.5-10.3
	c-5.9-4.9-13.9-6.9-21.5-5.5c-0.8,0.2-1.6,0.7-1.9,1.5c-0.4,1.1,0,2.2,0.9,2.8c7.5,5,10.5,11,11.6,15.9c-6.4-4.7-15.3-7.7-25-4.4
	c-0.9,0.3-1.6,1.1-1.7,2c-0.2,1.2,0.6,2.3,1.7,2.6c5.8,1.6,9.9,5.7,12.8,10.6c-6.2-3-13.4-3.8-20.1-2.1c-1,0.2-1.7,1-1.8,2
	c-0.1,1,0.3,1.9,1.2,2.4c8.3,4.8,13.7,14,14.1,23.5H37.4C36.1,174,35,175,35,176.4L35,176.4z M55.1,174c-0.3-9.1-4.5-18-11.4-24h0.2
	c5,0,10,1.5,14.1,4.3c1,0.7,2,1.5,2.8,2.3c0.3,0.8,0.5,1.6,0.8,2.4c0.3,1.2,1.5,1.9,2.7,1.7c0,0,0,0,0.1,0c1.4-0.2,2.3-1.6,1.9-3
	c-2.3-7.5-6.3-16.2-13.6-21.3c3.3,0,6.6,0.9,9.9,2.6c3,1.6,5.5,3.6,7.1,5.3c-0.1,1-0.2,1.9-0.3,2.8c-0.2,1.1,0.4,2.2,1.5,2.6
	c0,0,0,0,0,0c1.4,0.6,3-0.3,3.2-1.8c0.5-2.6,0.6-5.5,0.2-8.7c-0.6-4.9-2.7-11.6-9-17.6c4.2,0.4,8.4,2.1,11.6,4.7
	c3.2,2.6,5.5,6.3,6.8,10.3c-1.1,1.2-2,2.5-2.9,3.9c-0.8,1.3-0.2,3,1.2,3.5c0,0,0,0,0,0c1,0.4,2.2,0,2.8-0.9c1.6-2.6,3.7-4.8,6.2-6.7
	c3.4-2.6,7.2-4.2,10.7-5.2c-7,7.6-9.6,15.3-10.3,21.5c-2.4,2.2-4.5,4.8-6.1,7.6c-0.6,1.2-0.2,2.6,0.9,3.3c1.2,0.6,2.6,0.2,3.3-0.9
	c1.9-3.3,4.5-6.2,7.6-8.3c4.2-2.9,9.3-4.3,14.3-4.3c-6.8,6-11.1,14.9-11.4,24L55.1,174L55.1,174z"/>
<polygon class="st0" points="24.1,74.8 21.7,61.3 15.6,52.6 11.5,47.2 20.5,47.2 29.2,49.9 33.4,51.7 28.6,42.7 22.5,36.7 
	18.7,34.6 25.3,32.8 37.3,36.7 43.6,40.6 43.6,31.9 36.4,23.8 32.8,19.3 43.6,19.3 52.3,25 56.8,32.2 58.3,34.9 67.9,29.8 
	76.9,27.7 73.3,34.9 67.9,43.3 65.5,51.1 74.8,47.2 83.1,47.2 88.9,47.2 81.7,54.4 76.6,62.2 74.5,69.7 74.2,74.8 "/>
<path class="st1" d="M6.9,75.8c0,1.3,1.1,2.4,2.4,2.4h80.1c1.3,0,2.4-1.1,2.4-2.4c0-1.3-1.1-2.4-2.4-2.4H76.5
	c0.3-9.5,5.8-18.8,14.1-23.5c0.8-0.5,1.3-1.4,1.2-2.4c-0.1-1-0.8-1.8-1.8-2c-7-1.8-14.8-0.8-21.2,2.6c1.6-5.9,5.3-12.7,13.3-19.1
	c0.9-0.7,1.2-2,0.6-3c-0.4-0.8-1.3-1.3-2.2-1.3c-2.8,0-12.2,0.6-20.7,7.2c-0.2,0.2-0.4,0.3-0.6,0.4c-1.6-4-4.2-7.6-7.5-10.3
	c-5.9-4.9-13.9-6.9-21.5-5.5c-0.8,0.2-1.6,0.7-1.9,1.5c-0.4,1.1,0,2.2,0.9,2.8c7.5,5,10.5,11,11.6,15.9c-6.4-4.7-15.3-7.7-25-4.4
	c-0.9,0.3-1.6,1.1-1.7,2c-0.2,1.2,0.6,2.3,1.7,2.6c5.8,1.6,9.9,5.7,12.8,10.6c-6.2-3-13.4-3.8-20.1-2.1c-1,0.2-1.7,1-1.8,2
	c-0.1,1,0.3,1.9,1.2,2.4c8.3,4.8,13.7,14,14.1,23.5H9.3C7.9,73.4,6.9,74.5,6.9,75.8L6.9,75.8z M26.9,73.4c-0.3-9.1-4.5-18-11.4-24
	h0.2c5,0,10,1.5,14.1,4.3c1,0.7,2,1.5,2.8,2.3c0.3,0.8,0.5,1.6,0.8,2.4c0.3,1.2,1.5,1.9,2.7,1.7c0,0,0,0,0.1,0
	c1.4-0.2,2.3-1.6,1.9-3c-2.3-7.5-6.3-16.2-13.6-21.3c3.3,0,6.6,0.9,9.9,2.6c3,1.6,5.5,3.6,7.1,5.3c-0.1,1-0.2,1.9-0.3,2.8
	c-0.2,1.1,0.4,2.2,1.5,2.6c0,0,0,0,0,0c1.4,0.6,3-0.3,3.2-1.8c0.5-2.6,0.6-5.5,0.2-8.7c-0.6-4.9-2.7-11.6-9-17.6
	c4.2,0.4,8.4,2.1,11.6,4.7c3.2,2.6,5.5,6.3,6.8,10.3c-1.1,1.2-2,2.5-2.9,3.9c-0.8,1.3-0.2,3,1.2,3.5c0,0,0,0,0,0
	c1,0.4,2.2,0,2.8-0.9c1.6-2.6,3.7-4.8,6.2-6.7c3.4-2.6,7.2-4.2,10.7-5.2c-7,7.6-9.6,15.3-10.3,21.5c-2.4,2.2-4.5,4.8-6.1,7.6
	c-0.6,1.2-0.2,2.6,0.9,3.3c1.2,0.6,2.6,0.2,3.3-0.9c1.9-3.3,4.5-6.2,7.6-8.3c4.2-2.9,9.3-4.3,14.3-4.3c-6.8,6-11.1,14.9-11.4,24
	L26.9,73.4L26.9,73.4z"/>
<polygon class="st0" points="213.1,133.4 210.7,119.9 204.6,111.2 200.5,105.9 209.5,105.8 218.2,108.5 222.4,110.3 217.6,101.3 
	211.5,95.3 207.7,93.2 214.3,91.4 226.3,95.3 232.6,99.2 232.6,90.5 225.4,82.4 221.8,77.9 232.6,77.9 241.3,83.6 245.8,90.8 
	247.3,93.5 256.9,88.4 265.9,86.3 262.3,93.5 256.9,101.9 254.5,109.7 263.8,105.9 272.1,105.9 277.9,105.9 270.7,113 265.6,120.8 
	263.5,128.3 263.2,133.4 "/>
<path class="st1" d="M195.8,134.5c0,1.3,1.1,2.4,2.4,2.4h80.1c1.3,0,2.4-1.1,2.4-2.4c0-1.3-1.1-2.4-2.4-2.4h-12.9
	c0.3-9.5,5.8-18.8,14.1-23.5c0.8-0.5,1.3-1.4,1.2-2.4c-0.1-1-0.8-1.8-1.8-2c-7.1-1.8-14.8-0.8-21.2,2.6c1.6-5.9,5.3-12.7,13.3-19.1
	c0.9-0.7,1.2-2,0.6-3c-0.4-0.8-1.3-1.3-2.2-1.3c-2.8,0-12.2,0.6-20.7,7.2c-0.2,0.2-0.4,0.3-0.6,0.4c-1.6-4-4.2-7.6-7.5-10.3
	c-5.9-4.9-13.9-6.9-21.5-5.5c-0.8,0.2-1.6,0.7-1.9,1.5c-0.4,1.1,0,2.2,0.9,2.8c7.5,5,10.5,11,11.6,15.9c-6.4-4.7-15.3-7.7-25-4.4
	c-0.9,0.3-1.6,1.1-1.7,2c-0.2,1.2,0.6,2.3,1.7,2.6c5.8,1.6,9.9,5.7,12.8,10.6c-6.2-3-13.4-3.8-20.1-2.1c-1,0.2-1.7,1-1.8,2
	c-0.1,1,0.3,1.9,1.2,2.4c8.3,4.8,13.7,14,14.1,23.5h-12.9C196.9,132.1,195.8,133.1,195.8,134.5L195.8,134.5z M215.9,132.1
	c-0.3-9.1-4.5-18-11.4-24h0.2c5,0,10,1.5,14.1,4.3c1,0.7,2,1.5,2.8,2.3c0.3,0.8,0.5,1.6,0.8,2.4c0.3,1.2,1.5,1.9,2.7,1.7
	c0,0,0,0,0.1,0c1.4-0.2,2.3-1.6,1.9-3c-2.3-7.5-6.3-16.2-13.6-21.3c3.3,0,6.6,0.9,9.9,2.6c3,1.6,5.5,3.6,7.1,5.3
	c-0.1,1-0.2,1.9-0.3,2.8c-0.2,1.1,0.4,2.2,1.5,2.6c0,0,0,0,0,0c1.4,0.6,3-0.3,3.2-1.8c0.5-2.6,0.6-5.5,0.2-8.7
	c-0.6-4.9-2.7-11.6-9-17.6c4.2,0.4,8.4,2.1,11.6,4.7c3.2,2.6,5.5,6.3,6.8,10.3c-1.1,1.2-2,2.5-2.9,3.9c-0.8,1.3-0.2,3,1.2,3.5
	c0,0,0,0,0,0c1,0.4,2.2,0,2.8-0.9c1.6-2.6,3.7-4.8,6.2-6.7c3.4-2.6,7.2-4.2,10.7-5.2c-7,7.6-9.6,15.3-10.3,21.5
	c-2.4,2.2-4.5,4.8-6.1,7.6c-0.6,1.2-0.2,2.6,0.9,3.3c1.2,0.6,2.6,0.2,3.3-0.9c1.9-3.3,4.5-6.2,7.6-8.3c4.2-2.9,9.3-4.3,14.3-4.3
	c-6.8,6-11.1,14.9-11.4,24L215.9,132.1L215.9,132.1z"/>
<polygon class="st0" points="201.1,494.9 198.7,481.4 192.5,472.7 188.5,467.3 197.5,467.3 206.2,470 210.4,471.8 205.6,462.8 
	199.5,456.8 195.7,454.7 202.3,452.9 214.3,456.8 220.6,460.7 220.6,452 213.4,443.9 209.8,439.4 220.6,439.4 229.3,445.1 
	233.8,452.3 235.3,455 244.9,449.9 253.9,447.8 250.3,455 244.9,463.4 242.5,471.2 251.8,467.3 260.1,467.3 265.9,467.3 
	258.7,474.5 253.6,482.3 251.5,489.8 251.2,494.9 "/>
<path class="st1" d="M183.8,496c0,1.3,1.1,2.4,2.4,2.4h80.1c1.3,0,2.4-1.1,2.4-2.4c0-1.3-1.1-2.4-2.4-2.4h-12.9
	c0.3-9.5,5.8-18.8,14.1-23.5c0.8-0.5,1.3-1.4,1.2-2.4c-0.1-1-0.8-1.8-1.8-2c-7.1-1.8-14.8-0.8-21.2,2.6c1.6-5.9,5.3-12.7,13.3-19.1
	c0.9-0.7,1.2-2,0.6-3c-0.4-0.8-1.3-1.3-2.2-1.3c-2.8,0-12.2,0.6-20.7,7.2c-0.2,0.2-0.4,0.3-0.6,0.4c-1.6-4-4.2-7.6-7.5-10.3
	c-5.9-4.9-13.9-6.9-21.5-5.5c-0.8,0.2-1.6,0.7-1.9,1.5c-0.4,1.1,0,2.2,0.9,2.8c7.5,5,10.5,11,11.6,15.9c-6.4-4.7-15.3-7.7-25-4.4
	c-0.9,0.3-1.6,1.1-1.7,2c-0.2,1.2,0.6,2.3,1.7,2.6c5.8,1.6,9.9,5.7,12.8,10.6c-6.2-3-13.4-3.8-20.1-2.1c-1,0.2-1.7,1-1.8,2
	c-0.1,1,0.3,1.9,1.2,2.4c8.3,4.8,13.7,14,14.1,23.5h-12.9C184.9,493.6,183.8,494.6,183.8,496L183.8,496z M203.9,493.6
	c-0.3-9.1-4.5-18-11.4-24h0.2c5,0,10,1.5,14.1,4.3c1,0.7,2,1.5,2.8,2.3c0.3,0.8,0.5,1.6,0.8,2.4c0.3,1.2,1.5,1.9,2.7,1.7
	c0,0,0,0,0.1,0c1.4-0.2,2.3-1.6,1.9-3c-2.3-7.5-6.3-16.2-13.6-21.3c3.3,0,6.6,0.9,9.9,2.6c3,1.6,5.5,3.6,7.1,5.3
	c-0.1,1-0.2,1.9-0.3,2.8c-0.2,1.1,0.4,2.2,1.5,2.6c0,0,0,0,0,0c1.4,0.6,3-0.3,3.2-1.8c0.5-2.6,0.6-5.5,0.2-8.7
	c-0.6-4.9-2.7-11.6-9-17.6c4.2,0.4,8.4,2.1,11.6,4.7c3.2,2.6,5.5,6.3,6.8,10.3c-1.1,1.2-2,2.5-2.9,3.9c-0.8,1.3-0.2,3,1.2,3.5
	c0,0,0,0,0,0c1,0.4,2.2,0,2.8-0.9c1.6-2.6,3.7-4.8,6.2-6.7c3.4-2.6,7.2-4.2,10.7-5.2c-7,7.6-9.6,15.3-10.3,21.5
	c-2.4,2.2-4.5,4.8-6.1,7.6c-0.6,1.2-0.2,2.6,0.9,3.3c1.2,0.6,2.6,0.2,3.3-0.9c1.9-3.3,4.5-6.2,7.6-8.3c4.2-2.9,9.3-4.3,14.3-4.3
	c-6.8,6-11.1,14.9-11.4,24L203.9,493.6L203.9,493.6z"/>
<polygon class="st0" points="426.2,161 423.8,147.5 417.6,138.8 413.6,133.5 422.6,133.4 431.3,136.1 435.5,137.9 430.7,128.9 
	424.5,122.9 420.8,120.8 427.4,119 439.4,122.9 445.7,126.8 445.7,118.1 438.5,110 434.9,105.5 445.7,105.5 454.4,111.2 
	458.9,118.4 460.4,121.1 470,116 479,113.9 475.4,121.1 470,129.5 467.6,137.3 476.9,133.5 485.1,133.5 491,133.5 483.8,140.6 
	478.7,148.4 476.6,155.9 476.3,161 "/>
<path class="st1" d="M408.9,162.1c0,1.3,1.1,2.4,2.4,2.4h80.1c1.3,0,2.4-1.1,2.4-2.4c0-1.3-1.1-2.4-2.4-2.4h-12.9
	c0.3-9.5,5.8-18.8,14.1-23.5c0.8-0.5,1.3-1.4,1.2-2.4c-0.1-1-0.8-1.8-1.8-2c-7-1.8-14.8-0.8-21.2,2.6c1.6-5.9,5.3-12.7,13.3-19.1
	c0.9-0.7,1.2-2,0.6-3c-0.4-0.8-1.3-1.3-2.2-1.3c-2.8,0-12.2,0.6-20.7,7.2c-0.2,0.2-0.4,0.3-0.6,0.4c-1.6-4-4.2-7.6-7.5-10.3
	c-5.9-4.9-13.9-6.9-21.5-5.5c-0.8,0.2-1.6,0.7-1.9,1.5c-0.4,1.1,0,2.2,0.9,2.8c7.5,5,10.5,11,11.6,15.9c-6.4-4.7-15.3-7.7-25-4.4
	c-0.9,0.3-1.6,1.1-1.7,2c-0.2,1.2,0.6,2.3,1.7,2.6c5.8,1.6,9.9,5.7,12.8,10.6c-6.2-3-13.4-3.8-20.1-2.1c-1,0.2-1.7,1-1.8,2
	c-0.1,1,0.3,1.9,1.2,2.4c8.3,4.8,13.7,14,14.1,23.5h-12.9C410,159.7,408.9,160.7,408.9,162.1L408.9,162.1z M429,159.7
	c-0.3-9.1-4.5-18-11.4-24h0.2c5,0,10,1.5,14.1,4.3c1,0.7,2,1.5,2.8,2.3c0.3,0.8,0.5,1.6,0.8,2.4c0.3,1.2,1.5,1.9,2.7,1.7
	c0,0,0,0,0.1,0c1.4-0.2,2.3-1.6,1.9-3c-2.3-7.5-6.3-16.2-13.6-21.3c3.3,0,6.6,0.9,9.9,2.6c3,1.6,5.5,3.6,7.1,5.3
	c-0.1,1-0.2,1.9-0.3,2.8c-0.2,1.1,0.4,2.2,1.5,2.6c0,0,0,0,0,0c1.4,0.6,3-0.3,3.2-1.8c0.5-2.6,0.6-5.5,0.2-8.7
	c-0.6-4.9-2.7-11.6-9-17.6c4.2,0.4,8.4,2.1,11.6,4.7c3.2,2.6,5.5,6.3,6.8,10.3c-1.1,1.2-2,2.5-2.9,3.9c-0.8,1.3-0.2,3,1.2,3.5
	c0,0,0,0,0,0c1,0.4,2.2,0,2.8-0.9c1.6-2.6,3.7-4.8,6.2-6.7c3.4-2.6,7.2-4.2,10.7-5.2c-7,7.6-9.6,15.3-10.3,21.5
	c-2.4,2.2-4.5,4.8-6.1,7.6c-0.6,1.2-0.2,2.6,0.9,3.3c1.2,0.6,2.6,0.2,3.3-0.9c1.9-3.3,4.5-6.2,7.6-8.3c4.2-2.9,9.3-4.3,14.3-4.3
	c-6.8,6-11.1,14.9-11.4,24L429,159.7L429,159.7z"/>
<polygon class="st0" points="329.3,70 326.9,56.5 320.7,47.8 316.7,42.4 325.7,42.4 334.4,45.1 338.6,46.9 333.8,37.9 327.6,31.9 
	323.9,29.8 330.5,28 342.5,31.9 348.8,35.8 348.8,27.1 341.6,19 338,14.5 348.8,14.5 357.5,20.2 362,27.4 363.5,30.1 373.1,25 
	382.1,22.9 378.5,30.1 373.1,38.5 370.7,46.3 380,42.4 388.2,42.4 394.1,42.4 386.9,49.6 381.8,57.4 379.7,64.9 379.4,70 "/>
<path class="st1" d="M312,71c0,1.3,1.1,2.4,2.4,2.4h80.1c1.3,0,2.4-1.1,2.4-2.4c0-1.3-1.1-2.4-2.4-2.4h-12.9
	c0.3-9.5,5.8-18.8,14.1-23.5c0.8-0.5,1.3-1.4,1.2-2.4c-0.1-1-0.8-1.8-1.8-2c-7.1-1.8-14.8-0.8-21.2,2.6c1.6-5.9,5.3-12.7,13.3-19.1
	c0.9-0.7,1.2-2,0.6-3c-0.4-0.8-1.3-1.3-2.2-1.3c-2.8,0-12.2,0.6-20.7,7.2c-0.2,0.2-0.4,0.3-0.6,0.4c-1.6-4-4.2-7.6-7.5-10.3
	c-5.9-4.9-13.9-6.9-21.5-5.5c-0.8,0.2-1.6,0.7-1.9,1.5c-0.4,1.1,0,2.2,0.9,2.8c7.5,5,10.5,11,11.6,15.9c-6.4-4.7-15.3-7.7-25-4.4
	c-0.9,0.3-1.6,1.1-1.7,2c-0.2,1.2,0.6,2.3,1.7,2.6c5.8,1.6,9.9,5.7,12.8,10.6c-6.2-3-13.4-3.8-20.1-2.1c-1,0.2-1.7,1-1.8,2
	c-0.1,1,0.3,1.9,1.2,2.4c8.3,4.8,13.7,14,14.1,23.5h-12.9C313.1,68.6,312,69.7,312,71L312,71z M332.1,68.6c-0.3-9.1-4.5-18-11.4-24
	h0.2c5,0,10,1.5,14.1,4.3c1,0.7,2,1.5,2.8,2.3c0.3,0.8,0.5,1.6,0.8,2.4c0.3,1.2,1.5,1.9,2.7,1.7c0,0,0,0,0.1,0
	c1.4-0.2,2.3-1.6,1.9-3c-2.3-7.5-6.3-16.2-13.6-21.3c3.3,0,6.6,0.9,9.9,2.6c3,1.6,5.5,3.6,7.1,5.3c-0.1,1-0.2,1.9-0.3,2.8
	c-0.2,1.1,0.4,2.2,1.5,2.6c0,0,0,0,0,0c1.4,0.6,3-0.3,3.2-1.8c0.5-2.6,0.6-5.5,0.2-8.7c-0.6-4.9-2.7-11.6-9-17.6
	c4.2,0.4,8.4,2.1,11.6,4.7c3.2,2.6,5.5,6.3,6.8,10.3c-1.1,1.2-2,2.5-2.9,3.9c-0.8,1.3-0.2,3,1.2,3.5c0,0,0,0,0,0
	c1,0.4,2.2,0,2.8-0.9c1.6-2.6,3.7-4.8,6.2-6.7c3.4-2.6,7.2-4.2,10.7-5.2c-7,7.6-9.6,15.3-10.3,21.5c-2.4,2.2-4.5,4.8-6.1,7.6
	c-0.6,1.2-0.2,2.6,0.9,3.3c1.2,0.6,2.6,0.2,3.3-0.9c1.9-3.3,4.5-6.2,7.6-8.3c4.2-2.9,9.3-4.3,14.3-4.3c-6.8,6-11.1,14.9-11.4,24
	L332.1,68.6L332.1,68.6z"/>
<polygon class="st0" points="134.8,109 133.6,102.2 130.6,97.9 128.5,95.2 133,95.2 137.4,96.5 139.5,97.4 137.1,92.9 134,89.9 
	132.1,88.9 135.4,88 141.4,89.9 144.6,91.9 144.6,87.5 141,83.5 139.2,81.2 144.6,81.2 148.9,84.1 151.2,87.7 151.9,89 156.7,86.5 
	161.2,85.4 159.4,89 156.7,93.2 155.5,97.1 160.2,95.2 164.3,95.2 167.2,95.2 163.6,98.8 161.1,102.7 160,106.4 159.9,109 "/>
<path class="st1" d="M126.2,109.5c0,0.7,0.5,1.2,1.2,1.2h40.1c0.7,0,1.2-0.5,1.2-1.2c0-0.7-0.5-1.2-1.2-1.2H161
	c0.2-4.8,2.9-9.4,7-11.8c0.4-0.2,0.7-0.7,0.6-1.2c-0.1-0.5-0.4-0.9-0.9-1c-3.5-0.9-7.4-0.4-10.6,1.3c0.8-2.9,2.7-6.3,6.7-9.5
	c0.4-0.4,0.6-1,0.3-1.5c-0.2-0.4-0.6-0.6-1.1-0.6c-1.4,0-6.1,0.3-10.4,3.6c-0.1,0.1-0.2,0.2-0.3,0.2c-0.8-2-2.1-3.8-3.8-5.2
	c-3-2.4-7-3.5-10.8-2.7c-0.4,0.1-0.8,0.4-0.9,0.8c-0.2,0.5,0,1.1,0.5,1.4c3.8,2.5,5.3,5.5,5.8,7.9c-3.2-2.4-7.6-3.8-12.5-2.2
	c-0.4,0.1-0.8,0.5-0.8,1c-0.1,0.6,0.3,1.2,0.9,1.3c2.9,0.8,4.9,2.9,6.4,5.3c-3.1-1.5-6.7-1.9-10.1-1.1c-0.5,0.1-0.8,0.5-0.9,1
	c-0.1,0.5,0.2,1,0.6,1.2c4.1,2.4,6.9,7,7,11.8h-6.4C126.7,108.3,126.2,108.8,126.2,109.5L126.2,109.5z M136.2,108.3
	c-0.1-4.5-2.3-9-5.7-12h0.1c2.5,0,5,0.7,7.1,2.2c0.5,0.3,1,0.7,1.4,1.2c0.1,0.4,0.3,0.8,0.4,1.2c0.2,0.6,0.7,0.9,1.3,0.8
	c0,0,0,0,0,0c0.7-0.1,1.1-0.8,0.9-1.5c-1.1-3.8-3.2-8.1-6.8-10.6c1.7,0,3.3,0.4,4.9,1.3c1.5,0.8,2.7,1.8,3.5,2.6
	c0,0.5-0.1,1-0.2,1.4c-0.1,0.6,0.2,1.1,0.7,1.3c0,0,0,0,0,0c0.7,0.3,1.5-0.1,1.6-0.9c0.2-1.3,0.3-2.8,0.1-4.3
	c-0.3-2.5-1.4-5.8-4.5-8.8c2.1,0.2,4.2,1,5.8,2.4c1.6,1.3,2.8,3.1,3.4,5.1c-0.5,0.6-1,1.2-1.5,1.9c-0.4,0.6-0.1,1.5,0.6,1.8
	c0,0,0,0,0,0c0.5,0.2,1.1,0,1.4-0.5c0.8-1.3,1.9-2.4,3.1-3.4c1.7-1.3,3.6-2.1,5.3-2.6c-3.5,3.8-4.8,7.6-5.1,10.7
	c-1.2,1.1-2.3,2.4-3.1,3.8c-0.3,0.6-0.1,1.3,0.5,1.6c0.6,0.3,1.3,0.1,1.6-0.5c0.9-1.7,2.2-3.1,3.8-4.2c2.1-1.4,4.6-2.2,7.2-2.2
	c-3.4,3-5.5,7.5-5.7,12L136.2,108.3L136.2,108.3z"/>
<polygon class="st0" points="27.1,484.9 25.9,478.2 22.8,473.8 20.8,471.1 25.3,471.1 29.7,472.5 31.8,473.4 29.4,468.9 26.3,465.9 
	24.4,464.8 27.7,463.9 33.7,465.9 36.9,467.8 36.9,463.5 33.3,459.4 31.5,457.2 36.9,457.2 41.2,460 43.5,463.6 44.2,465 49,462.4 
	53.5,461.4 51.7,465 49,469.2 47.8,473.1 52.5,471.1 56.6,471.1 59.5,471.1 55.9,474.7 53.4,478.6 52.3,482.4 52.2,484.9 "/>
<path class="st1" d="M18.5,485.5c0,0.7,0.5,1.2,1.2,1.2h40.1c0.7,0,1.2-0.5,1.2-1.2c0-0.7-0.5-1.2-1.2-1.2h-6.4
	c0.2-4.8,2.9-9.4,7-11.8c0.4-0.2,0.7-0.7,0.6-1.2c-0.1-0.5-0.4-0.9-0.9-1c-3.5-0.9-7.4-0.4-10.6,1.3c0.8-2.9,2.7-6.3,6.7-9.5
	c0.4-0.4,0.6-1,0.3-1.5c-0.2-0.4-0.6-0.6-1.1-0.6c-1.4,0-6.1,0.3-10.4,3.6c-0.1,0.1-0.2,0.2-0.3,0.2c-0.8-2-2.1-3.8-3.8-5.2
	c-3-2.4-7-3.5-10.8-2.7c-0.4,0.1-0.8,0.4-0.9,0.8c-0.2,0.5,0,1.1,0.5,1.4c3.8,2.5,5.3,5.5,5.8,7.9c-3.2-2.4-7.6-3.8-12.5-2.2
	c-0.4,0.1-0.8,0.5-0.8,1c-0.1,0.6,0.3,1.2,0.9,1.3c2.9,0.8,4.9,2.9,6.4,5.3c-3.1-1.5-6.7-1.9-10.1-1.1c-0.5,0.1-0.8,0.5-0.9,1
	c-0.1,0.5,0.2,1,0.6,1.2c4.1,2.4,6.9,7,7,11.8h-6.4C19,484.3,18.5,484.8,18.5,485.5L18.5,485.5z M28.5,484.3c-0.1-4.5-2.3-9-5.7-12
	h0.1c2.5,0,5,0.7,7.1,2.2c0.5,0.3,1,0.7,1.4,1.2c0.1,0.4,0.3,0.8,0.4,1.2c0.2,0.6,0.7,0.9,1.3,0.8c0,0,0,0,0,0
	c0.7-0.1,1.1-0.8,0.9-1.5c-1.1-3.8-3.2-8.1-6.8-10.6c1.7,0,3.3,0.4,4.9,1.3c1.5,0.8,2.7,1.8,3.5,2.6c0,0.5-0.1,1-0.2,1.4
	c-0.1,0.6,0.2,1.1,0.7,1.3c0,0,0,0,0,0c0.7,0.3,1.5-0.1,1.6-0.9c0.2-1.3,0.3-2.8,0.1-4.3c-0.3-2.5-1.4-5.8-4.5-8.8
	c2.1,0.2,4.2,1,5.8,2.4c1.6,1.3,2.8,3.1,3.4,5.1c-0.5,0.6-1,1.2-1.5,1.9c-0.4,0.6-0.1,1.5,0.6,1.8c0,0,0,0,0,0
	c0.5,0.2,1.1,0,1.4-0.5c0.8-1.3,1.9-2.4,3.1-3.4c1.7-1.3,3.6-2.1,5.3-2.6c-3.5,3.8-4.8,7.6-5.1,10.7c-1.2,1.1-2.3,2.4-3.1,3.8
	c-0.3,0.6-0.1,1.3,0.5,1.6c0.6,0.3,1.3,0.1,1.6-0.5c0.9-1.7,2.2-3.1,3.8-4.2c2.1-1.4,4.6-2.2,7.2-2.2c-3.4,3-5.5,7.5-5.7,12
	L28.5,484.3L28.5,484.3z"/>
<polygon class="st0" points="323,331 321.8,324.2 318.7,319.9 316.7,317.2 321.2,317.2 325.5,318.5 327.6,319.4 325.2,314.9 
	322.1,311.9 320.3,310.9 323.6,310 329.6,311.9 332.7,313.9 332.7,309.5 329.1,305.5 327.3,303.2 332.7,303.2 337.1,306.1 
	339.3,309.7 340.1,311 344.9,308.5 349.4,307.4 347.6,311 344.9,315.2 343.7,319.1 348.3,317.2 352.4,317.2 355.4,317.2 
	351.8,320.8 349.2,324.7 348.2,328.4 348,331 "/>
<path class="st1" d="M314.3,331.5c0,0.7,0.5,1.2,1.2,1.2h40.1c0.7,0,1.2-0.5,1.2-1.2c0-0.7-0.5-1.2-1.2-1.2h-6.4
	c0.2-4.8,2.9-9.4,7-11.8c0.4-0.2,0.7-0.7,0.6-1.2c-0.1-0.5-0.4-0.9-0.9-1c-3.5-0.9-7.4-0.4-10.6,1.3c0.8-2.9,2.7-6.3,6.7-9.5
	c0.4-0.4,0.6-1,0.3-1.5c-0.2-0.4-0.6-0.6-1.1-0.6c-1.4,0-6.1,0.3-10.4,3.6c-0.1,0.1-0.2,0.2-0.3,0.2c-0.8-2-2.1-3.8-3.8-5.2
	c-3-2.4-7-3.5-10.8-2.7c-0.4,0.1-0.8,0.4-0.9,0.8c-0.2,0.5,0,1.1,0.5,1.4c3.8,2.5,5.3,5.5,5.8,7.9c-3.2-2.4-7.6-3.8-12.5-2.2
	c-0.4,0.1-0.8,0.5-0.8,1c-0.1,0.6,0.3,1.2,0.9,1.3c2.9,0.8,4.9,2.9,6.4,5.3c-3.1-1.5-6.7-1.9-10.1-1.1c-0.5,0.1-0.8,0.5-0.9,1
	s0.2,1,0.6,1.2c4.1,2.4,6.9,7,7,11.8h-6.4C314.9,330.3,314.3,330.8,314.3,331.5L314.3,331.5z M324.4,330.3c-0.1-4.5-2.3-9-5.7-12
	h0.1c2.5,0,5,0.7,7.1,2.2c0.5,0.3,1,0.7,1.4,1.2c0.1,0.4,0.3,0.8,0.4,1.2c0.2,0.6,0.7,0.9,1.3,0.8c0,0,0,0,0,0
	c0.7-0.1,1.1-0.8,0.9-1.5c-1.1-3.8-3.2-8.1-6.8-10.6c1.7,0,3.3,0.4,4.9,1.3c1.5,0.8,2.7,1.8,3.5,2.6c0,0.5-0.1,1-0.2,1.4
	c-0.1,0.6,0.2,1.1,0.7,1.3c0,0,0,0,0,0c0.7,0.3,1.5-0.1,1.6-0.9c0.2-1.3,0.3-2.8,0.1-4.3c-0.3-2.5-1.4-5.8-4.5-8.8
	c2.1,0.2,4.2,1,5.8,2.4c1.6,1.3,2.8,3.1,3.4,5.1c-0.5,0.6-1,1.2-1.5,1.9c-0.4,0.6-0.1,1.5,0.6,1.8c0,0,0,0,0,0
	c0.5,0.2,1.1,0,1.4-0.5c0.8-1.3,1.9-2.4,3.1-3.4c1.7-1.3,3.6-2.1,5.3-2.6c-3.5,3.8-4.8,7.6-5.1,10.7c-1.2,1.1-2.3,2.4-3.1,3.8
	c-0.3,0.6-0.1,1.3,0.5,1.6c0.6,0.3,1.3,0.1,1.6-0.5c0.9-1.7,2.2-3.1,3.8-4.2c2.1-1.4,4.6-2.2,7.2-2.2c-3.4,3-5.5,7.5-5.7,12
	L324.4,330.3L324.4,330.3z"/>
<polygon class="st0" points="62.3,242.4 61.1,235.7 58,231.3 56,228.6 60.5,228.6 64.8,230 66.9,230.9 64.5,226.4 61.5,223.4 
	59.6,222.3 62.9,221.4 68.9,223.4 72,225.3 72,221 68.4,216.9 66.6,214.7 72,214.7 76.4,217.5 78.6,221.1 79.4,222.5 84.2,219.9 
	88.7,218.9 86.9,222.5 84.2,226.7 83,230.6 87.6,228.6 91.8,228.6 94.7,228.6 91.1,232.2 88.5,236.1 87.5,239.9 87.3,242.4 "/>
<path class="st1" d="M53.7,242.9c0,0.7,0.5,1.2,1.2,1.2h40.1c0.7,0,1.2-0.5,1.2-1.2s-0.5-1.2-1.2-1.2h-6.4c0.2-4.8,2.9-9.4,7-11.8
	c0.4-0.2,0.7-0.7,0.6-1.2c-0.1-0.5-0.4-0.9-0.9-1c-3.5-0.9-7.4-0.4-10.6,1.3c0.8-2.9,2.7-6.3,6.7-9.5c0.4-0.4,0.6-1,0.3-1.5
	c-0.2-0.4-0.6-0.6-1.1-0.6c-1.4,0-6.1,0.3-10.4,3.6c-0.1,0.1-0.2,0.2-0.3,0.2c-0.8-2-2.1-3.8-3.8-5.2c-3-2.4-7-3.5-10.8-2.7
	c-0.4,0.1-0.8,0.4-0.9,0.8c-0.2,0.5,0,1.1,0.5,1.4c3.8,2.5,5.3,5.5,5.8,7.9c-3.2-2.4-7.6-3.8-12.5-2.2c-0.4,0.1-0.8,0.5-0.8,1
	c-0.1,0.6,0.3,1.2,0.9,1.3c2.9,0.8,4.9,2.9,6.4,5.3c-3.1-1.5-6.7-1.9-10.1-1.1c-0.5,0.1-0.8,0.5-0.9,1c-0.1,0.5,0.2,1,0.6,1.2
	c4.1,2.4,6.9,7,7,11.8h-6.4C54.2,241.7,53.7,242.3,53.7,242.9L53.7,242.9z M63.7,241.7c-0.1-4.5-2.3-9-5.7-12h0.1
	c2.5,0,5,0.7,7.1,2.2c0.5,0.3,1,0.7,1.4,1.2c0.1,0.4,0.3,0.8,0.4,1.2c0.2,0.6,0.7,0.9,1.3,0.8c0,0,0,0,0,0c0.7-0.1,1.1-0.8,0.9-1.5
	c-1.1-3.8-3.2-8.1-6.8-10.6c1.7,0,3.3,0.4,4.9,1.3c1.5,0.8,2.7,1.8,3.5,2.6c0,0.5-0.1,1-0.2,1.4c-0.1,0.6,0.2,1.1,0.7,1.3
	c0,0,0,0,0,0c0.7,0.3,1.5-0.1,1.6-0.9c0.2-1.3,0.3-2.8,0.1-4.3c-0.3-2.5-1.4-5.8-4.5-8.8c2.1,0.2,4.2,1,5.8,2.4
	c1.6,1.3,2.8,3.1,3.4,5.1c-0.5,0.6-1,1.2-1.5,1.9c-0.4,0.6-0.1,1.5,0.6,1.8c0,0,0,0,0,0c0.5,0.2,1.1,0,1.4-0.5
	c0.8-1.3,1.9-2.4,3.1-3.4c1.7-1.3,3.6-2.1,5.3-2.6c-3.5,3.8-4.8,7.6-5.1,10.7c-1.2,1.1-2.3,2.4-3.1,3.8c-0.3,0.6-0.1,1.3,0.5,1.6
	c0.6,0.3,1.3,0.1,1.6-0.5c0.9-1.7,2.2-3.1,3.8-4.2c2.1-1.4,4.6-2.2,7.2-2.2c-3.4,3-5.5,7.5-5.7,12L63.7,241.7L63.7,241.7z"/>
<polygon class="st0" points="455.9,484.9 454.7,478.2 451.6,473.8 449.6,471.2 454.1,471.1 458.4,472.5 460.5,473.4 458.1,468.9 
	455,465.9 453.2,464.8 456.5,463.9 462.5,465.9 465.6,467.8 465.6,463.5 462,459.4 460.2,457.2 465.6,457.2 470,460 472.2,463.6 
	473,465 477.8,462.4 482.3,461.4 480.5,465 477.8,469.2 476.6,473.1 481.2,471.2 485.3,471.2 488.3,471.2 484.7,474.7 482.1,478.6 
	481.1,482.4 480.9,484.9 "/>
<path class="st1" d="M447.2,485.5c0,0.7,0.5,1.2,1.2,1.2h40.1c0.7,0,1.2-0.5,1.2-1.2c0-0.7-0.5-1.2-1.2-1.2h-6.4
	c0.2-4.8,2.9-9.4,7-11.8c0.4-0.2,0.7-0.7,0.6-1.2c-0.1-0.5-0.4-0.9-0.9-1c-3.5-0.9-7.4-0.4-10.6,1.3c0.8-2.9,2.7-6.3,6.7-9.5
	c0.4-0.4,0.6-1,0.3-1.5c-0.2-0.4-0.6-0.6-1.1-0.6c-1.4,0-6.1,0.3-10.4,3.6c-0.1,0.1-0.2,0.2-0.3,0.2c-0.8-2-2.1-3.8-3.8-5.2
	c-3-2.4-7-3.5-10.8-2.7c-0.4,0.1-0.8,0.4-0.9,0.8c-0.2,0.5,0,1.1,0.5,1.4c3.8,2.5,5.3,5.5,5.8,7.9c-3.2-2.4-7.6-3.8-12.5-2.2
	c-0.4,0.1-0.8,0.5-0.8,1c-0.1,0.6,0.3,1.2,0.9,1.3c2.9,0.8,4.9,2.9,6.4,5.3c-3.1-1.5-6.7-1.9-10.1-1.1c-0.5,0.1-0.8,0.5-0.9,1
	c-0.1,0.5,0.2,1,0.6,1.2c4.1,2.4,6.9,7,7,11.8h-6.4C447.8,484.3,447.2,484.8,447.2,485.5L447.2,485.5z M457.3,484.3
	c-0.1-4.5-2.3-9-5.7-12h0.1c2.5,0,5,0.7,7.1,2.2c0.5,0.3,1,0.7,1.4,1.2c0.1,0.4,0.3,0.8,0.4,1.2c0.2,0.6,0.7,0.9,1.3,0.8
	c0,0,0,0,0,0c0.7-0.1,1.1-0.8,0.9-1.5c-1.1-3.8-3.2-8.1-6.8-10.6c1.7,0,3.3,0.4,4.9,1.3c1.5,0.8,2.7,1.8,3.5,2.6
	c0,0.5-0.1,1-0.2,1.4c-0.1,0.6,0.2,1.1,0.7,1.3c0,0,0,0,0,0c0.7,0.3,1.5-0.1,1.6-0.9c0.2-1.3,0.3-2.8,0.1-4.3
	c-0.3-2.5-1.4-5.8-4.5-8.8c2.1,0.2,4.2,1,5.8,2.4c1.6,1.3,2.8,3.1,3.4,5.1c-0.5,0.6-1,1.2-1.5,1.9c-0.4,0.6-0.1,1.5,0.6,1.8
	c0,0,0,0,0,0c0.5,0.2,1.1,0,1.4-0.5c0.8-1.3,1.9-2.4,3.1-3.4c1.7-1.3,3.6-2.1,5.3-2.6c-3.5,3.8-4.8,7.6-5.1,10.7
	c-1.2,1.1-2.3,2.4-3.1,3.8c-0.3,0.6-0.1,1.3,0.5,1.6c0.6,0.3,1.3,0.1,1.6-0.5c0.9-1.7,2.2-3.1,3.8-4.2c2.1-1.4,4.6-2.2,7.2-2.2
	c-3.4,3-5.5,7.5-5.7,12L457.3,484.3L457.3,484.3z"/>
<polygon class="st0" points="259.5,192.6 258.3,185.8 255.2,181.5 253.2,178.8 257.7,178.8 262,180.1 264.1,181 261.7,176.5 
	258.7,173.5 256.8,172.5 260.1,171.6 266.1,173.5 269.2,175.5 269.2,171.1 265.6,167.1 263.8,164.8 269.2,164.8 273.6,167.7 
	275.8,171.3 276.6,172.6 281.4,170.1 285.9,169 284.1,172.6 281.4,176.8 280.2,180.7 284.8,178.8 289,178.8 291.9,178.8 
	288.3,182.4 285.7,186.3 284.7,190 284.5,192.6 "/>
<path class="st1" d="M250.9,193.1c0,0.7,0.5,1.2,1.2,1.2h40.1c0.7,0,1.2-0.5,1.2-1.2c0-0.7-0.5-1.2-1.2-1.2h-6.4
	c0.2-4.8,2.9-9.4,7-11.8c0.4-0.2,0.7-0.7,0.6-1.2c-0.1-0.5-0.4-0.9-0.9-1c-3.5-0.9-7.4-0.4-10.6,1.3c0.8-2.9,2.7-6.3,6.7-9.5
	c0.4-0.4,0.6-1,0.3-1.5c-0.2-0.4-0.6-0.6-1.1-0.6c-1.4,0-6.1,0.3-10.4,3.6c-0.1,0.1-0.2,0.2-0.3,0.2c-0.8-2-2.1-3.8-3.8-5.2
	c-3-2.4-7-3.5-10.8-2.7c-0.4,0.1-0.8,0.4-0.9,0.8c-0.2,0.5,0,1.1,0.5,1.4c3.8,2.5,5.3,5.5,5.8,7.9c-3.2-2.4-7.6-3.8-12.5-2.2
	c-0.4,0.1-0.8,0.5-0.8,1c-0.1,0.6,0.3,1.2,0.9,1.3c2.9,0.8,4.9,2.9,6.4,5.3c-3.1-1.5-6.7-1.9-10.1-1.1c-0.5,0.1-0.8,0.5-0.9,1
	c-0.1,0.5,0.2,1,0.6,1.2c4.1,2.4,6.9,7,7,11.8h-6.4C251.4,191.9,250.9,192.4,250.9,193.1L250.9,193.1z M260.9,191.9
	c-0.1-4.5-2.3-9-5.7-12h0.1c2.5,0,5,0.7,7.1,2.2c0.5,0.3,1,0.7,1.4,1.2c0.1,0.4,0.3,0.8,0.4,1.2c0.2,0.6,0.7,0.9,1.3,0.8
	c0,0,0,0,0,0c0.7-0.1,1.1-0.8,0.9-1.5c-1.1-3.8-3.2-8.1-6.8-10.6c1.7,0,3.3,0.4,4.9,1.3c1.5,0.8,2.7,1.8,3.5,2.6
	c0,0.5-0.1,1-0.2,1.4c-0.1,0.6,0.2,1.1,0.7,1.3c0,0,0,0,0,0c0.7,0.3,1.5-0.1,1.6-0.9c0.2-1.3,0.3-2.8,0.1-4.3
	c-0.3-2.5-1.4-5.8-4.5-8.8c2.1,0.2,4.2,1,5.8,2.4c1.6,1.3,2.8,3.1,3.4,5.1c-0.5,0.6-1,1.2-1.5,1.9c-0.4,0.6-0.1,1.5,0.6,1.8
	c0,0,0,0,0,0c0.5,0.2,1.1,0,1.4-0.5c0.8-1.3,1.9-2.4,3.1-3.4c1.7-1.3,3.6-2.1,5.3-2.6c-3.5,3.8-4.8,7.6-5.1,10.7
	c-1.2,1.1-2.3,2.4-3.1,3.8c-0.3,0.6-0.1,1.3,0.5,1.6c0.6,0.3,1.3,0.1,1.6-0.5c0.9-1.7,2.2-3.1,3.8-4.2c2.1-1.4,4.6-2.2,7.2-2.2
	c-3.4,3-5.5,7.5-5.7,12L260.9,191.9L260.9,191.9z"/>
<polygon class="st0" points="453,61 451.8,54.3 448.7,49.9 446.7,47.2 451.2,47.2 455.6,48.6 457.7,49.5 455.3,45 452.2,42 
	450.3,40.9 453.6,40 459.6,42 462.8,43.9 462.8,39.6 459.2,35.5 457.4,33.3 462.8,33.3 467.1,36.1 469.4,39.7 470.1,41.1 
	474.9,38.5 479.4,37.5 477.6,41.1 474.9,45.3 473.7,49.2 478.4,47.2 482.5,47.2 485.4,47.2 481.8,50.8 479.3,54.7 478.2,58.5 
	478.1,61 "/>
<path class="st1" d="M444.4,61.5c0,0.7,0.5,1.2,1.2,1.2h40.1c0.7,0,1.2-0.5,1.2-1.2c0-0.7-0.5-1.2-1.2-1.2h-6.4
	c0.2-4.8,2.9-9.4,7-11.8c0.4-0.2,0.7-0.7,0.6-1.2c-0.1-0.5-0.4-0.9-0.9-1c-3.5-0.9-7.4-0.4-10.6,1.3c0.8-2.9,2.7-6.3,6.7-9.5
	c0.4-0.4,0.6-1,0.3-1.5c-0.2-0.4-0.6-0.6-1.1-0.6c-1.4,0-6.1,0.3-10.4,3.6c-0.1,0.1-0.2,0.2-0.3,0.2c-0.8-2-2.1-3.8-3.8-5.2
	c-3-2.4-7-3.5-10.8-2.7c-0.4,0.1-0.8,0.4-0.9,0.8c-0.2,0.5,0,1.1,0.5,1.4c3.8,2.5,5.3,5.5,5.8,7.9c-3.2-2.4-7.6-3.8-12.5-2.2
	c-0.4,0.1-0.8,0.5-0.8,1c-0.1,0.6,0.3,1.2,0.9,1.3c2.9,0.8,4.9,2.9,6.4,5.3c-3.1-1.5-6.7-1.9-10.1-1.1c-0.5,0.1-0.8,0.5-0.9,1
	c-0.1,0.5,0.2,1,0.6,1.2c4.1,2.4,6.9,7,7,11.8h-6.4C444.9,60.3,444.4,60.9,444.4,61.5L444.4,61.5z M454.4,60.3
	c-0.1-4.5-2.3-9-5.7-12h0.1c2.5,0,5,0.7,7.1,2.2c0.5,0.3,1,0.7,1.4,1.2c0.1,0.4,0.3,0.8,0.4,1.2c0.2,0.6,0.7,0.9,1.3,0.8
	c0,0,0,0,0,0c0.7-0.1,1.1-0.8,0.9-1.5c-1.1-3.8-3.2-8.1-6.8-10.6c1.7,0,3.3,0.4,4.9,1.3c1.5,0.8,2.7,1.8,3.5,2.6
	c0,0.5-0.1,1-0.2,1.4c-0.1,0.6,0.2,1.1,0.7,1.3c0,0,0,0,0,0c0.7,0.3,1.5-0.1,1.6-0.9c0.2-1.3,0.3-2.8,0.1-4.3
	c-0.3-2.5-1.4-5.8-4.5-8.8c2.1,0.2,4.2,1,5.8,2.4c1.6,1.3,2.8,3.1,3.4,5.1c-0.5,0.6-1,1.2-1.5,1.9c-0.4,0.6-0.1,1.5,0.6,1.8
	c0,0,0,0,0,0c0.5,0.2,1.1,0,1.4-0.5c0.8-1.3,1.9-2.4,3.1-3.4c1.7-1.3,3.6-2.1,5.3-2.6c-3.5,3.8-4.8,7.6-5.1,10.7
	c-1.2,1.1-2.3,2.4-3.1,3.8c-0.3,0.6-0.1,1.3,0.5,1.6c0.6,0.3,1.3,0.1,1.6-0.5c0.9-1.7,2.2-3.1,3.8-4.2c2.1-1.4,4.6-2.2,7.2-2.2
	c-3.4,3-5.5,7.5-5.7,12L454.4,60.3L454.4,60.3z"/>
</svg>
