<?xml version="1.0" encoding="utf-8"?>
<!-- Generator: Adobe Illustrator 26.4.1, SVG Export Plug-In . SVG Version: 6.00 Build 0)  -->
<svg version="1.1" id="Calque_1" xmlns="http://www.w3.org/2000/svg" xmlns:xlink="http://www.w3.org/1999/xlink" x="0px" y="0px"
	 viewBox="0 0 512 512" style="enable-background:new 0 0 512 512;" xml:space="preserve">
<style type="text/css">
	.st0{fill:#C1BCB8;}
	.st1{fill:#91CFE5;}
	.st2{fill:#FFD2AA;}
</style>
<g>
	<polygon class="st0" points="10.9,59.1 24.8,30.5 63.9,17.5 97.6,32.2 119.6,59.1 119.6,444.9 97.6,489.1 41.2,489.1 16.4,467.8 
		10.9,433.8 	"/>
	<polygon class="st1" points="119.6,282.3 119.6,444.9 97.6,489.1 157.2,477.2 183.4,417.8 241.4,409.8 260.2,364 314.2,364 
		345.6,385.3 385,377.8 393.4,337.2 421.2,305.2 502.1,312 502.1,91.8 437.6,79.9 370.4,73.9 342.2,73.9 293.7,110.6 256,99.2 
		222.6,116.4 237.5,177.3 210.4,217.7 174.4,216.9 158.9,223.4 138.4,274.9 	"/>
	<polygon class="st2" points="150.2,472 183.4,417.8 241.4,409.8 260.2,364 314.2,364 345.6,385.3 385,377.8 393.4,337.2 
		421.2,305.2 502.1,312 502.1,489.1 388.9,471.9 242.2,471.9 	"/>
	<polygon class="st2" points="119.6,89.4 119.6,282.3 138.4,274.9 158.9,223.4 210.4,217.7 230,178.5 222.6,116.4 256,99.2 
		293.7,110.6 342.2,73.9 	"/>
	<path d="M77.4,329.2h-0.8c-4.4,0-8,3.6-8,8c0,2.2,0.9,4.3,2.5,5.8c1.6,1.5,3.7,2.3,5.9,2.2c4.4,0,8-3.6,8-8s-3.6-8-8-8H77.4z"/>
	<path d="M77.4,289.2h-0.8c-4.4,0-8,3.6-8,8c0,2.2,0.9,4.3,2.5,5.8c1.6,1.5,3.7,2.3,5.9,2.2c4.4,0,8-3.6,8-8s-3.6-8-8-8H77.4z"/>
	<path d="M504.9,82.4c-124.7-23.8-252.7-24.3-377.6-1.7v-6.6c0.6-17.2-5.8-33.9-17.8-46.3C97.6,15.5,81.1,8.5,63.9,8.5
		c-17.2,0-33.7,7-45.6,19.4C6.3,40.2-0.1,57,0.5,74.2v362.4c0,11.5,3.1,22.7,9,32.6l0.5,0.8C21.6,488.6,42,500,64,500h0.8
		c3.3,0,6.6-0.3,9.8-0.9h3.4h0c3.6-0.3,7.1-1,10.6-2.2l58.6-8c111.1-15.8,224.1-13.1,334.4,8l20.5,3.8h0c2.4,0.4,4.8-0.2,6.6-1.8
		c1.8-1.6,2.9-3.8,2.8-6.2V90.2C511.5,86.4,508.7,83.1,504.9,82.4L504.9,82.4z M127.3,97h0.6l0,0C193,84.9,259.2,79.2,325.4,80
		l-9,6.6l-21.8,15.3l-36.2-10.7c-1.9-0.6-4-0.4-5.8,0.5l-32.5,16h0c-3,1.5-4.8,4.7-4.5,8l6.1,61.3L207,210.6h-44.8
		c-3.5,0-6.6,2.3-7.6,5.6L139.4,265l-12.1,5.2L127.3,97z M107.4,455.2c-4,9.2-10.8,16.9-19.4,22c0.3-0.4,0.7-0.8,1-1.2
		c7.5-11.5,9.5-25.7,5.4-38.8c-4.9-15.5-14.3-20.1-21-21.2c-8.5-1.9-17.4,0.3-24,6c-5.5,6.1-8.1,14.2-7.1,22.3c0.6,4.4,4.6,7.6,9,7
		c4.4-0.6,7.6-4.6,7-9c-0.3-3.2,0.6-6.3,2.5-8.9c3.1-1.8,6.7-2.3,10.2-1.4c1.4,0,5.4,0.9,8.4,10.2c2.7,8.4,1.5,17.6-3.4,25
		c-1.5,1.6-3.4,2.9-5.4,3.8c-6.5,2.9-13.6,4-20.7,3.2c-7.1-0.8-13.7-3.6-19.3-8l-8-5.9v0c-6.8-12.5-7.6-27.5-2.2-40.7
		s16.6-23.2,30.2-27.3c13.7-4.1,28.5-1.8,40.3,6.3c11.8,8.1,19.3,21,20.5,35.3C111,441.1,109.7,448.3,107.4,455.2L107.4,455.2z
		 M111.3,90.2v304.4c-12-13.7-29.2-21.5-47.4-21.5s-35.4,7.8-47.4,21.5V368c7.4-13.4,21.2-21.9,36.5-22.7c4.4-0.2,7.9-3.9,7.7-8.3
		c-0.2-4.4-3.9-7.9-8.3-7.7c-13.2,0.4-25.9,5.4-35.8,14.1V328c7.4-13.4,21.2-21.9,36.5-22.7c4.4-0.2,7.9-3.9,7.7-8.3
		c-0.2-4.4-3.9-7.9-8.3-7.7c-13.2,0.4-25.9,5.4-35.8,14.1V74.2C16,61.2,20.7,48.7,29.7,39.4C38.6,30,51,24.8,63.9,24.8
		c12.9,0,25.3,5.3,34.2,14.6c8.9,9.3,13.7,21.9,13.2,34.8L111.3,90.2z M495.3,482.2l-10.9-2.2c-104.1-19.9-210.6-23.5-315.8-10.8
		l19.1-44.3l54.9-7.5c2.9-0.4,5.4-2.4,6.4-5.2l15-40.7h48.8l22.6,21v0c1.7,1.6,4.1,2.4,6.5,2.1l43.7-5.4c3.4-0.4,6.2-3,6.9-6.3
		l9.5-45.7l22-25.1l71.1,5.5L495.3,482.2z M495.3,301.2l-73.8-5.8c-2.5-0.2-5,0.8-6.6,2.7L388.6,328c-0.9,1-1.5,2.3-1.8,3.6
		l-8.8,42.2l-34.4,4.2l-22.2-20.6h0c-1.5-1.4-3.4-2.1-5.4-2.1h-57.5c-3.4,0-6.4,2.1-7.5,5.3l-15.2,41.7l-54.6,7.5v0
		c-2.8,0.4-5.2,2.1-6.3,4.7L150.2,472l-5.4,0.7l-29.7,4.2l0,0c1.7-2.5,3.2-5.2,4.4-8c1-2.3,1.9-4.7,2.6-7c3.4-7.9,5.1-16.4,5.1-25
		V287.4l21.8-9.3h0c2.2-0.9,3.8-2.7,4.6-5l14.4-46.6h44.1c3.2,0,6.1-1.9,7.4-4.9l17.5-40.4v0c0.5-1.2,0.7-2.6,0.6-3.9l-5.5-57.8
		l24.7-12l37,11.2c2.3,0.7,4.9,0.3,6.9-1.1l25.2-17.6l25.8-19v0c48.3,1.9,96.4,7.3,144,16L495.3,301.2z"/>
	<path d="M402.3,417.8c0,2.1,0.8,4.2,2.3,5.7s3.5,2.3,5.7,2.3h24v24c0,4.4,3.6,8,8,8s8-3.6,8-8v-24h24c4.4,0,8-3.6,8-8s-3.6-8-8-8
		h-24v-24c0-4.4-3.6-8-8-8s-8,3.6-8,8v24h-24C405.9,409.8,402.3,413.4,402.3,417.8z"/>
	<path d="M331.2,158.9c0,2.1,0.8,4.2,2.3,5.7c1.5,1.5,3.5,2.3,5.7,2.3H352c4.4,0,8-3.6,8-8s-3.6-8-8-8h-12.8
		C334.8,150.9,331.2,154.5,331.2,158.9z"/>
	<path d="M378.4,166.9h2.5c4.4,0,8-3.6,8-8s-3.6-8-8-8h-2.5c-4.4,0-8,3.6-8,8S374,166.9,378.4,166.9z"/>
	<path d="M352,228.9h-12.8c-4.4,0-8,3.6-8,8s3.6,8,8,8H352c4.4,0,8-3.6,8-8S356.4,228.9,352,228.9z"/>
	<path d="M380.9,228.9h-2.5c-4.4,0-8,3.6-8,8s3.6,8,8,8h2.5c4.4,0,8-3.6,8-8S385.3,228.9,380.9,228.9z"/>
	<path d="M342.2,195.4c0-2.1-0.8-4.2-2.3-5.7s-3.5-2.3-5.7-2.3h-40c-4.4,0-8,3.6-8,8s3.6,8,8,8h40c2.1,0,4.2-0.8,5.7-2.3
		S342.2,197.5,342.2,195.4z"/>
	<path d="M350,195.4c0,2.1,0.8,4.2,2.3,5.7s3.5,2.3,5.7,2.3h6.6c4.4,0,8-3.6,8-8s-3.6-8-8-8H358C353.6,187.4,350,190.9,350,195.4z"
		/>
	<path d="M385,195.4c0,2.1,0.8,4.2,2.3,5.7s3.5,2.3,5.7,2.3h9.6h0c4.4,0,8-3.6,8-8s-3.6-8-8-8H393h0
		C388.5,187.4,385,190.9,385,195.4z"/>
</g>
</svg>
