<?xml version="1.0" encoding="utf-8"?>
<!-- Generator: Adobe Illustrator 26.4.1, SVG Export Plug-In . SVG Version: 6.00 Build 0)  -->
<svg version="1.1" id="Calque_1" xmlns="http://www.w3.org/2000/svg" xmlns:xlink="http://www.w3.org/1999/xlink" x="0px" y="0px"
	 viewBox="0 0 512 512" style="enable-background:new 0 0 512 512;" xml:space="preserve">
<style type="text/css">
	.st0{fill:#51371A;stroke:#000000;stroke-miterlimit:10;}
</style>
<rect x="34" y="31" class="st0" width="445" height="448"/>
<g>
	<path d="M23,23V489H489V23L23,23z M323.4,38.4v435.2l-134.9,0V38.4L323.4,38.4z M38.4,38.4h134.8v435.2l-134.8,0V38.4z
		 M473.6,473.6l-134.8,0V38.4h134.8V473.6z"/>
	<path d="M69,61.6c0,4.2-3.4,7.7-7.7,7.7s-7.7-3.4-7.7-7.7S57,54,61.3,54S69,57.4,69,61.6"/>
	<path d="M157.6,61.6c0,4.2-3.4,7.7-7.7,7.7s-7.7-3.4-7.7-7.7s3.4-7.7,7.7-7.7S157.6,57.4,157.6,61.6"/>
	<path d="M219.6,61.6c0,4.2-3.4,7.7-7.7,7.7c-4.2,0-7.7-3.4-7.7-7.7s3.4-7.7,7.7-7.7C216.1,54,219.6,57.4,219.6,61.6"/>
	<path d="M308.1,61.6c0,4.2-3.4,7.7-7.7,7.7s-7.7-3.4-7.7-7.7s3.4-7.7,7.7-7.7S308.1,57.4,308.1,61.6"/>
	<path d="M369.5,61.6c0,4.2-3.4,7.7-7.7,7.7c-4.2,0-7.7-3.4-7.7-7.7s3.4-7.7,7.7-7.7C366.1,54,369.5,57.4,369.5,61.6"/>
	<path d="M458.1,61.6c0,4.2-3.4,7.7-7.7,7.7s-7.7-3.4-7.7-7.7s3.4-7.7,7.7-7.7S458.1,57.4,458.1,61.6"/>
	<path d="M69,450.8c0,4.2-3.4,7.7-7.7,7.7s-7.7-3.4-7.7-7.7s3.4-7.7,7.7-7.7S69,446.5,69,450.8"/>
	<path d="M157.6,450.8c0,4.2-3.4,7.7-7.7,7.7s-7.7-3.4-7.7-7.7s3.4-7.7,7.7-7.7S157.6,446.5,157.6,450.8"/>
	<path d="M219.6,450.8c0,4.2-3.4,7.7-7.7,7.7c-4.2,0-7.7-3.4-7.7-7.7s3.4-7.7,7.7-7.7C216.1,443.1,219.6,446.5,219.6,450.8"/>
	<path d="M308.1,450.8c0,4.2-3.4,7.7-7.7,7.7s-7.7-3.4-7.7-7.7s3.4-7.7,7.7-7.7S308.1,446.5,308.1,450.8"/>
	<path d="M369.5,450.8c0,4.2-3.4,7.7-7.7,7.7c-4.2,0-7.7-3.4-7.7-7.7s3.4-7.7,7.7-7.7C366.1,443.1,369.5,446.5,369.5,450.8"/>
	<path d="M458.1,450.8c0,4.2-3.4,7.7-7.7,7.7s-7.7-3.4-7.7-7.7s3.4-7.7,7.7-7.7S458.1,446.5,458.1,450.8"/>
</g>
</svg>
